<?xml version="1.0" encoding="UTF-8" standalone="no"?>
<svg
   width="100"
   height="110"
   viewBox="25 30 100 110"
   version="1.1"
   id="svg1"
   xmlns="http://www.w3.org/2000/svg"
   xmlns:svg="http://www.w3.org/2000/svg">
  <g id="layer1">
    <path
       id="path2"
       style="fill:#92400E;stroke-width:0.264583"
       d="M 116.06896,127.82759 94.859711,115.23053 94.457163,137.96701 81.51046,117.73912 69.226481,137.93874 68.394762,114.20726 46.350811,126.45652 58.110342,105.33448 29.215681,107.45837 52.694156,92.878138 27.43413,83.862332 53.218946,79.305366 33.006842,57.750819 59.58077,67.304418 48.172412,40.586208 70.519592,59.25223 70.92214,32.722653 83.868843,56.743636 98.807999,31.61299 96.984541,60.275494 122.06298,43.095205 l -14.79402,26.053071 30.4119,-3.26182 -24.99571,15.718163 27.53588,4.843392 -28.06067,8.729381 18.69486,17.002818 -25.05669,-5.00187 z" />
    <ellipse
       style="fill:#e7e7e7;fill-opacity:1;stroke-width:0.264583"
       id="path3"
       cx="81.362068"
       cy="87.620689"
       rx="6.2480001"
       ry="1.897" />
    <ellipse
       style="fill:#101010;fill-opacity:1;stroke-width:0.264583"
       id="path6"
       cx="85.344833"
       cy="86.482758"
       rx="7.2068968"
       ry="10.620689" />
    <ellipse
       style="fill:#101010;fill-opacity:1;stroke-width:0.264583"
       id="path7"
       cx="84.396553"
       cy="90.086205"
       rx="1.7068965"
       ry="0.56896549" />
  </g>
</svg>
